{
  "asset": {
    "generator": "VKTS glTF 2.0 exporter",
    "version": "2.0"
  },
  "buffers": [
    {
      "uri": "Cube.bin",
      "byteLength": 1800
    }
  ],
  "bufferViews": [
    {
      "buffer": 0,
      "byteOffset": 0,
      "byteLength": 432,
      "byteStride": 12,
      "target": 34962
    },
    {
      "buffer": 0,
      "byteOffset": 432,
      "byteLength": 432,
      "byteStride": 12,
      "target": 34962
    },
    {
      "buffer": 0,
      "byteOffset": 864,
      "byteLength": 576,
      "byteStride": 16,
      "target": 34962
    },
    {
      "buffer": 0,
      "byteOffset": 1440,
      "byteLength": 288,
      "byteStride": 8,
      "target": 34962
    },
    {
      "buffer": 0,
      "byteOffset": 1728,
      "byteLength": 72,
      "target": 34963
    }
  ],
  "accessors": [
    {
      "bufferView": 0,
      "byteOffset": 0,
      "componentType": 5126,
      "normalized": false,
      "count": 36,
      "min": [
        -1,
        -1,
        -1
      ],
      "max": [
        1,
        1,
        1
      ],
      "type": "VEC3"
    },
    {
      "bufferView": 1,
      "byteOffset": 0,
      "componentType": 5126,
      "normalized": false,
      "count": 36,
      "min": [
        -1,
        -1,
        -1
      ],
      "max": [
        1,
        1,
        1.0000009536743164
      ],
      "type": "VEC3"
    },
    {
      "bufferView": 2,
      "byteOffset": 0,
      "componentType": 5126,
      "normalized": false,
      "count": 36,
      "min": [
        0,
        0,
        -1,
        -1
      ],
      "max": [
        1,
        0,
        0,
        1
      ],
      "type": "VEC4"
    },
    {
      "bufferView": 3,
      "byteOffset": 0,
      "componentType": 5126,
      "normalized": false,
      "count": 36,
      "min": [
        -1,
        -1
      ],
      "max": [
        1,
        1
      ],
      "type": "VEC2"
    },
    {
      "bufferView": 4,
      "byteOffset": 0,
      "componentType": 5123,
      "normalized": false,
      "count": 36,
      "min": [
        0
      ],
      "max": [
        35
      ],
      "type": "SCALAR"
    }
  ],
  "scene": 0,
  "scenes": [
    {
      "nodes": [
        0
      ],
      "name": "Cube"
    }
  ],
  "nodes": [
    {
      "name": "Cube",
      "extensions": {
        "KHR_node_visibility": {
          "visible": true
        }
      },
      "mesh": 0
    }
  ],
  "meshes": [
    {
      "primitives": [
        {
          "material": 0,
          "mode": 4,
          "attributes": {
            "NORMAL": 0,
            "POSITION": 1,
            "TANGENT": 2,
            "TEXCOORD_0": 3
          },
          "indices": 4
        }
      ]
    }
  ],
  "materials": [
    {
      "name": "Cube",
      "pbrMetallicRoughness": {
        "baseColorFactor": [
          1,
          1,
          1,
          1
        ],
        "metallicFactor": 1,
        "roughnessFactor": 1,
        "baseColorTexture": {
          "index": 0,
          "texCoord": 0
        },
        "metallicRoughnessTexture": {
          "index": 1,
          "texCoord": 0
        }
      },
      "emissiveFactor": [
        0,
        0,
        0
      ],
      "alphaMode": "OPAQUE",
      "doubleSided": false
    }
  ],
  "textures": [
    {
      "sampler": 0,
      "name": "Cube_BaseColor.png",
      "source": 0
    },
    {
      "sampler": 1,
      "name": "Cube_MetallicRoughness.png",
      "source": 1
    }
  ],
  "samplers": [
    {
      "magFilter": 9729,
      "minFilter": 9987,
      "wrapS": 10497,
      "wrapT": 10497
    },
    {
      "magFilter": 9729,
      "minFilter": 9987,
      "wrapS": 10497,
      "wrapT": 10497
    }
  ],
  "images": [
    {
      "uri": "Cube_BaseColor.png",
      "mimeType": "image/png",
      "name": "Cube_BaseColor.png"
    },
    {
      "uri": "Cube_MetallicRoughness.png",
      "mimeType": "image/png",
      "name": "Cube_MetallicRoughness.png"
    }
  ],
  "extensionsUsed": [
    "KHR_node_visibility"
  ]
}