{"asset":{"version":"2.0","generator":"Unity 6000.0.26f1 glTFast 6.12.1"},"nodes":[{"name":"sphere_1","mesh":0,"translation":[0,-1.5,0]},{"name":"sphere_2","mesh":1,"translation":[1.5,-1.5,0]},{"name":"sphere_3","mesh":2,"translation":[3,-1.5,0]},{"name":"sphere_4","mesh":3,"translation":[4.5,-1.5,0]},{"name":"sphere_5","mesh":4,"translation":[6,-1.5,0]},{"name":"sphere_6","mesh":5,"translation":[7.5,-1.5,0]},{"name":"row_0","children":[0,1,2,3,4,5]},{"name":"sphere_1","mesh":6},{"name":"sphere_2","mesh":7,"translation":[1.5,0,0]},{"name":"sphere_3","mesh":8,"translation":[3,0,0]},{"name":"sphere_4","mesh":9,"translation":[4.5,0,0]},{"name":"sphere_5","mesh":10,"translation":[6,0,0]},{"name":"sphere_6","mesh":11,"translation":[7.5,0,0]},{"name":"row_1","children":[7,8,9,10,11,12]},{"name":"sphere_1","mesh":12,"translation":[0,1.5,0]},{"name":"sphere_2","mesh":13,"translation":[1.5,1.5,0]},{"name":"sphere_3","mesh":14,"translation":[3,1.5,0]},{"name":"sphere_4","mesh":15,"translation":[4.5,1.5,0]},{"name":"sphere_5","mesh":16,"translation":[6,1.5,0]},{"name":"sphere_6","mesh":17,"translation":[7.5,1.5,0]},{"name":"row_2","children":[14,15,16,17,18,19]},{"name":"sphere_1","mesh":18,"translation":[0,3,0]},{"name":"sphere_2","mesh":19,"translation":[1.5,3,0]},{"name":"sphere_3","mesh":20,"translation":[3,3,0]},{"name":"sphere_4","mesh":21,"translation":[4.5,3,0]},{"name":"sphere_5","mesh":22,"translation":[6,3,0]},{"name":"sphere_6","mesh":23,"translation":[7.5,3,0]},{"name":"row_3","children":[21,22,23,24,25,26]},{"name":"sphere_1","mesh":24,"translation":[0,4.5,0]},{"name":"sphere_2","mesh":25,"translation":[1.5,4.5,0]},{"name":"sphere_3","mesh":26,"translation":[3,4.5,0]},{"name":"sphere_4","mesh":27,"translation":[4.5,4.5,0]},{"name":"sphere_5","mesh":28,"translation":[6,4.5,0]},{"name":"sphere_6","mesh":29,"translation":[7.5,4.5,0]},{"name":"row_4","children":[28,29,30,31,32,33]},{"name":"sphere_1","mesh":30,"translation":[0,6,0]},{"name":"sphere_2","mesh":31,"translation":[1.5,6,0]},{"name":"sphere_3","mesh":32,"translation":[3,6,0]},{"name":"sphere_4","mesh":33,"translation":[4.5,6,0]},{"name":"sphere_5","mesh":34,"translation":[6,6,0]},{"name":"sphere_6","mesh":35,"translation":[7.5,6,0]},{"name":"row_5","children":[35,36,37,38,39,40]},{"name":"test_pbr","children":[6,13,20,27,34,41],"translation":[5.24591255,3.21985245,-5.773543]}],"buffers":[{"uri":"test_pbr.bin","byteLength":33448}],"bufferViews":[{"buffer":0,"byteLength":4608,"target":34963},{"buffer":0,"byteLength":28840,"byteOffset":4608,"byteStride":56,"target":34962}],"accessors":[{"bufferView":1,"componentType":5126,"count":515,"type":"VEC3","max":[0.5,0.5,0.5],"min":[-0.5,-0.5,-0.5]},{"bufferView":1,"componentType":5126,"count":515,"type":"VEC3","byteOffset":12},{"bufferView":1,"componentType":5126,"count":515,"type":"VEC4","byteOffset":24},{"bufferView":1,"componentType":5126,"count":515,"type":"VEC2","byteOffset":40},{"bufferView":1,"componentType":5126,"count":515,"type":"VEC2","byteOffset":48},{"bufferView":0,"componentType":5123,"count":2304,"type":"SCALAR"}],"materials":[{"name":"pbrMetallicRoughness 30","pbrMetallicRoughness":{"baseColorFactor":[0.7615293,0.0632292852,0.0271751843,1],"metallicFactor":0,"roughnessFactor":0}},{"name":"pbrMetallicRoughness 31","pbrMetallicRoughness":{"baseColorFactor":[0.7615293,0.0632292852,0.0271751843,1],"metallicFactor":0,"roughnessFactor":0.2}},{"name":"pbrMetallicRoughness 32","pbrMetallicRoughness":{"baseColorFactor":[0.7615293,0.0632292852,0.0271751843,1],"metallicFactor":0,"roughnessFactor":0.4}},{"name":"pbrMetallicRoughness 33","pbrMetallicRoughness":{"baseColorFactor":[0.7615293,0.0632292852,0.0271751843,1],"metallicFactor":0,"roughnessFactor":0.6}},{"name":"pbrMetallicRoughness 34","pbrMetallicRoughness":{"baseColorFactor":[0.7615293,0.0632292852,0.0271751843,1],"metallicFactor":0,"roughnessFactor":0.8}},{"name":"pbrMetallicRoughness 35","pbrMetallicRoughness":{"baseColorFactor":[0.7615293,0.0632292852,0.0271751843,1],"metallicFactor":0}},{"name":"pbrMetallicRoughness 24","pbrMetallicRoughness":{"baseColorFactor":[0.7615293,0.0632292852,0.0271751843,1],"metallicFactor":0.2,"roughnessFactor":0}},{"name":"pbrMetallicRoughness 25","pbrMetallicRoughness":{"baseColorFactor":[0.7615293,0.0632292852,0.0271751843,1],"metallicFactor":0.2,"roughnessFactor":0.2}},{"name":"pbrMetallicRoughness 26","pbrMetallicRoughness":{"baseColorFactor":[0.7615293,0.0632292852,0.0271751843,1],"metallicFactor":0.2,"roughnessFactor":0.4}},{"name":"pbrMetallicRoughness 27","pbrMetallicRoughness":{"baseColorFactor":[0.7615293,0.0632292852,0.0271751843,1],"metallicFactor":0.2,"roughnessFactor":0.6}},{"name":"pbrMetallicRoughness 28","pbrMetallicRoughness":{"baseColorFactor":[0.7615293,0.0632292852,0.0271751843,1],"metallicFactor":0.2,"roughnessFactor":0.8}},{"name":"pbrMetallicRoughness 29","pbrMetallicRoughness":{"baseColorFactor":[0.7615293,0.0632292852,0.0271751843,1],"metallicFactor":0.2}},{"name":"pbrMetallicRoughness 18","pbrMetallicRoughness":{"baseColorFactor":[0.7615293,0.0632292852,0.0271751843,1],"metallicFactor":0.4,"roughnessFactor":0}},{"name":"pbrMetallicRoughness 19","pbrMetallicRoughness":{"baseColorFactor":[0.7615293,0.0632292852,0.0271751843,1],"metallicFactor":0.4,"roughnessFactor":0.2}},{"name":"pbrMetallicRoughness 20","pbrMetallicRoughness":{"baseColorFactor":[0.7615293,0.0632292852,0.0271751843,1],"metallicFactor":0.4,"roughnessFactor":0.4}},{"name":"pbrMetallicRoughness 21","pbrMetallicRoughness":{"baseColorFactor":[0.7615293,0.0632292852,0.0271751843,1],"metallicFactor":0.4,"roughnessFactor":0.6}},{"name":"pbrMetallicRoughness 22","pbrMetallicRoughness":{"baseColorFactor":[0.7615293,0.0632292852,0.0271751843,1],"metallicFactor":0.4,"roughnessFactor":0.8}},{"name":"pbrMetallicRoughness 23","pbrMetallicRoughness":{"baseColorFactor":[0.7615293,0.0632292852,0.0271751843,1],"metallicFactor":0.4}},{"name":"pbrMetallicRoughness 12","pbrMetallicRoughness":{"baseColorFactor":[0.7615293,0.0632292852,0.0271751843,1],"metallicFactor":0.6,"roughnessFactor":0}},{"name":"pbrMetallicRoughness 13","pbrMetallicRoughness":{"baseColorFactor":[0.7615293,0.0632292852,0.0271751843,1],"metallicFactor":0.6,"roughnessFactor":0.2}},{"name":"pbrMetallicRoughness 14","pbrMetallicRoughness":{"baseColorFactor":[0.7615293,0.0632292852,0.0271751843,1],"metallicFactor":0.6,"roughnessFactor":0.4}},{"name":"pbrMetallicRoughness 15","pbrMetallicRoughness":{"baseColorFactor":[0.7615293,0.0632292852,0.0271751843,1],"metallicFactor":0.6,"roughnessFactor":0.6}},{"name":"pbrMetallicRoughness 16","pbrMetallicRoughness":{"baseColorFactor":[0.7615293,0.0632292852,0.0271751843,1],"metallicFactor":0.6,"roughnessFactor":0.8}},{"name":"pbrMetallicRoughness 17","pbrMetallicRoughness":{"baseColorFactor":[0.7615293,0.0632292852,0.0271751843,1],"metallicFactor":0.6}},{"name":"pbrMetallicRoughness 6","pbrMetallicRoughness":{"baseColorFactor":[0.7615293,0.0632292852,0.0271751843,1],"metallicFactor":0.8,"roughnessFactor":0}},{"name":"pbrMetallicRoughness 7","pbrMetallicRoughness":{"baseColorFactor":[0.7615293,0.0632292852,0.0271751843,1],"metallicFactor":0.8,"roughnessFactor":0.2}},{"name":"pbrMetallicRoughness 8","pbrMetallicRoughness":{"baseColorFactor":[0.7615293,0.0632292852,0.0271751843,1],"metallicFactor":0.8,"roughnessFactor":0.4}},{"name":"pbrMetallicRoughness 9","pbrMetallicRoughness":{"baseColorFactor":[0.7615293,0.0632292852,0.0271751843,1],"metallicFactor":0.8,"roughnessFactor":0.6}},{"name":"pbrMetallicRoughness 10","pbrMetallicRoughness":{"baseColorFactor":[0.7615293,0.0632292852,0.0271751843,1],"metallicFactor":0.8,"roughnessFactor":0.8}},{"name":"pbrMetallicRoughness 11","pbrMetallicRoughness":{"baseColorFactor":[0.7615293,0.0632292852,0.0271751843,1],"metallicFactor":0.8}},{"name":"pbrMetallicRoughness","pbrMetallicRoughness":{"baseColorFactor":[0.7615293,0.0632292852,0.0271751843,1],"roughnessFactor":0}},{"name":"pbrMetallicRoughness 1","pbrMetallicRoughness":{"baseColorFactor":[0.7615293,0.0632292852,0.0271751843,1],"roughnessFactor":0.2}},{"name":"pbrMetallicRoughness 2","pbrMetallicRoughness":{"baseColorFactor":[0.7615293,0.0632292852,0.0271751843,1],"roughnessFactor":0.4}},{"name":"pbrMetallicRoughness 3","pbrMetallicRoughness":{"baseColorFactor":[0.7615293,0.0632292852,0.0271751843,1],"roughnessFactor":0.6}},{"name":"pbrMetallicRoughness 4","pbrMetallicRoughness":{"baseColorFactor":[0.7615293,0.0632292852,0.0271751843,1],"roughnessFactor":0.8}},{"name":"pbrMetallicRoughness 5","pbrMetallicRoughness":{"baseColorFactor":[0.7615293,0.0632292852,0.0271751843,1]}}],"meshes":[{"name":"Sphere","primitives":[{"attributes":{"POSITION":0,"NORMAL":1,"TANGENT":2,"TEXCOORD_0":3,"TEXCOORD_1":4},"indices":5,"material":0}]},{"name":"Sphere","primitives":[{"attributes":{"POSITION":0,"NORMAL":1,"TANGENT":2,"TEXCOORD_0":3,"TEXCOORD_1":4},"indices":5,"material":1}]},{"name":"Sphere","primitives":[{"attributes":{"POSITION":0,"NORMAL":1,"TANGENT":2,"TEXCOORD_0":3,"TEXCOORD_1":4},"indices":5,"material":2}]},{"name":"Sphere","primitives":[{"attributes":{"POSITION":0,"NORMAL":1,"TANGENT":2,"TEXCOORD_0":3,"TEXCOORD_1":4},"indices":5,"material":3}]},{"name":"Sphere","primitives":[{"attributes":{"POSITION":0,"NORMAL":1,"TANGENT":2,"TEXCOORD_0":3,"TEXCOORD_1":4},"indices":5,"material":4}]},{"name":"Sphere","primitives":[{"attributes":{"POSITION":0,"NORMAL":1,"TANGENT":2,"TEXCOORD_0":3,"TEXCOORD_1":4},"indices":5,"material":5}]},{"name":"Sphere","primitives":[{"attributes":{"POSITION":0,"NORMAL":1,"TANGENT":2,"TEXCOORD_0":3,"TEXCOORD_1":4},"indices":5,"material":6}]},{"name":"Sphere","primitives":[{"attributes":{"POSITION":0,"NORMAL":1,"TANGENT":2,"TEXCOORD_0":3,"TEXCOORD_1":4},"indices":5,"material":7}]},{"name":"Sphere","primitives":[{"attributes":{"POSITION":0,"NORMAL":1,"TANGENT":2,"TEXCOORD_0":3,"TEXCOORD_1":4},"indices":5,"material":8}]},{"name":"Sphere","primitives":[{"attributes":{"POSITION":0,"NORMAL":1,"TANGENT":2,"TEXCOORD_0":3,"TEXCOORD_1":4},"indices":5,"material":9}]},{"name":"Sphere","primitives":[{"attributes":{"POSITION":0,"NORMAL":1,"TANGENT":2,"TEXCOORD_0":3,"TEXCOORD_1":4},"indices":5,"material":10}]},{"name":"Sphere","primitives":[{"attributes":{"POSITION":0,"NORMAL":1,"TANGENT":2,"TEXCOORD_0":3,"TEXCOORD_1":4},"indices":5,"material":11}]},{"name":"Sphere","primitives":[{"attributes":{"POSITION":0,"NORMAL":1,"TANGENT":2,"TEXCOORD_0":3,"TEXCOORD_1":4},"indices":5,"material":12}]},{"name":"Sphere","primitives":[{"attributes":{"POSITION":0,"NORMAL":1,"TANGENT":2,"TEXCOORD_0":3,"TEXCOORD_1":4},"indices":5,"material":13}]},{"name":"Sphere","primitives":[{"attributes":{"POSITION":0,"NORMAL":1,"TANGENT":2,"TEXCOORD_0":3,"TEXCOORD_1":4},"indices":5,"material":14}]},{"name":"Sphere","primitives":[{"attributes":{"POSITION":0,"NORMAL":1,"TANGENT":2,"TEXCOORD_0":3,"TEXCOORD_1":4},"indices":5,"material":15}]},{"name":"Sphere","primitives":[{"attributes":{"POSITION":0,"NORMAL":1,"TANGENT":2,"TEXCOORD_0":3,"TEXCOORD_1":4},"indices":5,"material":16}]},{"name":"Sphere","primitives":[{"attributes":{"POSITION":0,"NORMAL":1,"TANGENT":2,"TEXCOORD_0":3,"TEXCOORD_1":4},"indices":5,"material":17}]},{"name":"Sphere","primitives":[{"attributes":{"POSITION":0,"NORMAL":1,"TANGENT":2,"TEXCOORD_0":3,"TEXCOORD_1":4},"indices":5,"material":18}]},{"name":"Sphere","primitives":[{"attributes":{"POSITION":0,"NORMAL":1,"TANGENT":2,"TEXCOORD_0":3,"TEXCOORD_1":4},"indices":5,"material":19}]},{"name":"Sphere","primitives":[{"attributes":{"POSITION":0,"NORMAL":1,"TANGENT":2,"TEXCOORD_0":3,"TEXCOORD_1":4},"indices":5,"material":20}]},{"name":"Sphere","primitives":[{"attributes":{"POSITION":0,"NORMAL":1,"TANGENT":2,"TEXCOORD_0":3,"TEXCOORD_1":4},"indices":5,"material":21}]},{"name":"Sphere","primitives":[{"attributes":{"POSITION":0,"NORMAL":1,"TANGENT":2,"TEXCOORD_0":3,"TEXCOORD_1":4},"indices":5,"material":22}]},{"name":"Sphere","primitives":[{"attributes":{"POSITION":0,"NORMAL":1,"TANGENT":2,"TEXCOORD_0":3,"TEXCOORD_1":4},"indices":5,"material":23}]},{"name":"Sphere","primitives":[{"attributes":{"POSITION":0,"NORMAL":1,"TANGENT":2,"TEXCOORD_0":3,"TEXCOORD_1":4},"indices":5,"material":24}]},{"name":"Sphere","primitives":[{"attributes":{"POSITION":0,"NORMAL":1,"TANGENT":2,"TEXCOORD_0":3,"TEXCOORD_1":4},"indices":5,"material":25}]},{"name":"Sphere","primitives":[{"attributes":{"POSITION":0,"NORMAL":1,"TANGENT":2,"TEXCOORD_0":3,"TEXCOORD_1":4},"indices":5,"material":26}]},{"name":"Sphere","primitives":[{"attributes":{"POSITION":0,"NORMAL":1,"TANGENT":2,"TEXCOORD_0":3,"TEXCOORD_1":4},"indices":5,"material":27}]},{"name":"Sphere","primitives":[{"attributes":{"POSITION":0,"NORMAL":1,"TANGENT":2,"TEXCOORD_0":3,"TEXCOORD_1":4},"indices":5,"material":28}]},{"name":"Sphere","primitives":[{"attributes":{"POSITION":0,"NORMAL":1,"TANGENT":2,"TEXCOORD_0":3,"TEXCOORD_1":4},"indices":5,"material":29}]},{"name":"Sphere","primitives":[{"attributes":{"POSITION":0,"NORMAL":1,"TANGENT":2,"TEXCOORD_0":3,"TEXCOORD_1":4},"indices":5,"material":30}]},{"name":"Sphere","primitives":[{"attributes":{"POSITION":0,"NORMAL":1,"TANGENT":2,"TEXCOORD_0":3,"TEXCOORD_1":4},"indices":5,"material":31}]},{"name":"Sphere","primitives":[{"attributes":{"POSITION":0,"NORMAL":1,"TANGENT":2,"TEXCOORD_0":3,"TEXCOORD_1":4},"indices":5,"material":32}]},{"name":"Sphere","primitives":[{"attributes":{"POSITION":0,"NORMAL":1,"TANGENT":2,"TEXCOORD_0":3,"TEXCOORD_1":4},"indices":5,"material":33}]},{"name":"Sphere","primitives":[{"attributes":{"POSITION":0,"NORMAL":1,"TANGENT":2,"TEXCOORD_0":3,"TEXCOORD_1":4},"indices":5,"material":34}]},{"name":"Sphere","primitives":[{"attributes":{"POSITION":0,"NORMAL":1,"TANGENT":2,"TEXCOORD_0":3,"TEXCOORD_1":4},"indices":5,"material":35}]}],"scene":0,"scenes":[{"name":"test_pbr","nodes":[42]}]}