{
  "asset": {
    "copyright": "CC0 public domain, model sourced from https://polyhaven.com/a/tea_set_01, edited by Eric Chadwick.",
    "generator": "Edited in 3ds Max 2024.1, exported with Satoshi Hayashi glTF exporter 1.42, edited in Visual Studio Code 1.83 with glTF Tools 2.4.",
    "version": "2.0"
  },
  "buffers": [
    {
      "uri": "DiffuseTransmissionTeacup.bin",
      "byteLength": 3043872
    }
  ],
  "bufferViews": [
    {
      "buffer": 0,
      "byteOffset": 0,
      "byteLength": 599328,
      "byteStride": 12,
      "target": 34962
    },
    {
      "buffer": 0,
      "byteOffset": 599328,
      "byteLength": 599328,
      "byteStride": 12,
      "target": 34962
    },
    {
      "buffer": 0,
      "byteOffset": 1198656,
      "byteLength": 399552,
      "byteStride": 8,
      "target": 34962
    },
    {
      "buffer": 0,
      "byteOffset": 1598208,
      "byteLength": 199776,
      "target": 34963
    },
    {
      "buffer": 0,
      "byteOffset": 1797984,
      "byteLength": 415296,
      "byteStride": 12,
      "target": 34962
    },
    {
      "buffer": 0,
      "byteOffset": 2213280,
      "byteLength": 415296,
      "byteStride": 12,
      "target": 34962
    },
    {
      "buffer": 0,
      "byteOffset": 2628576,
      "byteLength": 276864,
      "byteStride": 8,
      "target": 34962
    },
    {
      "buffer": 0,
      "byteOffset": 2905440,
      "byteLength": 138432,
      "target": 34963
    }
  ],
  "accessors": [
    {
      "bufferView": 0,
      "byteOffset": 0,
      "componentType": 5126,
      "normalized": false,
      "count": 49944,
      "min": [
        -0.9999350905418396,
        -1,
        -0.9999899864196777
      ],
      "max": [
        0.9998793005943298,
        1,
        0.9985435009002686
      ],
      "type": "VEC3"
    },
    {
      "bufferView": 1,
      "byteOffset": 0,
      "componentType": 5126,
      "normalized": false,
      "count": 49944,
      "min": [
        -0.05317941680550575,
        0.002442633965983987,
        -0.07910969108343124
      ],
      "max": [
        0.05317942053079605,
        0.06970596313476562,
        0.053179413080215454
      ],
      "type": "VEC3"
    },
    {
      "bufferView": 2,
      "byteOffset": 0,
      "componentType": 5126,
      "normalized": false,
      "count": 49944,
      "min": [
        0.009999990463256836,
        0.003878176212310791
      ],
      "max": [
        0.9899702668190002,
        0.9900000095367432
      ],
      "type": "VEC2"
    },
    {
      "bufferView": 3,
      "byteOffset": 0,
      "componentType": 5125,
      "normalized": false,
      "count": 49944,
      "min": [
        0
      ],
      "max": [
        49943
      ],
      "type": "SCALAR"
    },
    {
      "bufferView": 4,
      "byteOffset": 0,
      "componentType": 5126,
      "normalized": false,
      "count": 34608,
      "min": [
        -0.9996894598007202,
        -1,
        -0.9996894001960754
      ],
      "max": [
        0.9996894001960754,
        0.9999999403953552,
        0.9996897578239441
      ],
      "type": "VEC3"
    },
    {
      "bufferView": 5,
      "byteOffset": 0,
      "componentType": 5126,
      "normalized": false,
      "count": 34608,
      "min": [
        -0.07430917024612427,
        -0.0006779426475986838,
        -0.07430917769670486
      ],
      "max": [
        0.07430914789438248,
        0.015187043696641922,
        0.07430917769670486
      ],
      "type": "VEC3"
    },
    {
      "bufferView": 6,
      "byteOffset": 0,
      "componentType": 5126,
      "normalized": false,
      "count": 34608,
      "min": [
        0.010007113218307495,
        0.008173823356628418
      ],
      "max": [
        0.9887738227844238,
        0.9899942874908447
      ],
      "type": "VEC2"
    },
    {
      "bufferView": 7,
      "byteOffset": 0,
      "componentType": 5125,
      "normalized": false,
      "count": 34608,
      "min": [
        0
      ],
      "max": [
        34607
      ],
      "type": "SCALAR"
    }
  ],
  "scene": 0,
  "scenes": [
    {
      "nodes": [
        0,
        1
      ],
      "name": "DiffuseTransmissionTeacup"
    }
  ],
  "nodes": [
    {
      "name": "tea_cup",
      "matrix": [
        1,
        0,
        0,
        0,
        0,
        1,
        4.371138828673793e-8,
        0,
        0,
        -4.371138828673793e-8,
        1,
        0,
        0.000008457805961370468,
        0,
        -0.00030597392469644547,
        1
      ],
      "extensions": {
        "KHR_node_visibility": {
          "visible": true
        }
      },
      "mesh": 0
    },
    {
      "name": "tea_saucer",
      "matrix": [
        1,
        0,
        0,
        0,
        0,
        1,
        4.371138828673793e-8,
        0,
        0,
        -4.371138828673793e-8,
        1,
        0,
        0.000008428003638982773,
        0,
        0.000007516704499721527,
        1
      ],
      "extensions": {
        "KHR_node_visibility": {
          "visible": true
        }
      },
      "mesh": 1
    }
  ],
  "meshes": [
    {
      "primitives": [
        {
          "material": 0,
          "mode": 4,
          "attributes": {
            "NORMAL": 0,
            "POSITION": 1,
            "TEXCOORD_0": 2
          },
          "indices": 3
        }
      ]
    },
    {
      "primitives": [
        {
          "material": 1,
          "mode": 4,
          "attributes": {
            "NORMAL": 4,
            "POSITION": 5,
            "TEXCOORD_0": 6
          },
          "indices": 7
        }
      ]
    }
  ],
  "materials": [
    {
      "name": "tea_cup",
      "pbrMetallicRoughness": {
        "baseColorFactor": [
          1,
          1,
          1,
          1
        ],
        "metallicFactor": 1,
        "roughnessFactor": 1,
        "baseColorTexture": {
          "index": 0,
          "texCoord": 0
        },
        "metallicRoughnessTexture": {
          "index": 1,
          "texCoord": 0
        }
      },
      "emissiveFactor": [
        0,
        0,
        0
      ],
      "alphaMode": "OPAQUE",
      "doubleSided": false,
      "normalTexture": {
        "index": 2,
        "texCoord": 0,
        "scale": 1
      },
      "occlusionTexture": {
        "index": 1,
        "texCoord": 0,
        "strength": 1
      }
    },
    {
      "name": "tea_saucer",
      "pbrMetallicRoughness": {
        "baseColorFactor": [
          1,
          1,
          1,
          1
        ],
        "metallicFactor": 1,
        "roughnessFactor": 1,
        "baseColorTexture": {
          "index": 3,
          "texCoord": 0
        },
        "metallicRoughnessTexture": {
          "index": 4,
          "texCoord": 0
        }
      },
      "emissiveFactor": [
        0,
        0,
        0
      ],
      "alphaMode": "OPAQUE",
      "doubleSided": false,
      "normalTexture": {
        "index": 5,
        "texCoord": 0,
        "scale": 1
      },
      "occlusionTexture": {
        "index": 4,
        "texCoord": 0,
        "strength": 1
      }
    }
  ],
  "textures": [
    {
      "sampler": 0,
      "name": "base.png",
      "source": 0
    },
    {
      "sampler": 1,
      "name": "metallicRoughness.png",
      "source": 1
    },
    {
      "sampler": 2,
      "name": "normal.png",
      "source": 2
    },
    {
      "sampler": 3,
      "name": "base.png",
      "source": 3
    },
    {
      "sampler": 4,
      "name": "metallicRoughness.png",
      "source": 4
    },
    {
      "sampler": 5,
      "name": "normal.png",
      "source": 5
    }
  ],
  "samplers": [
    {
      "magFilter": 9729,
      "minFilter": 9987,
      "wrapS": 10497,
      "wrapT": 10497
    },
    {
      "magFilter": 9729,
      "minFilter": 9987,
      "wrapS": 10497,
      "wrapT": 10497
    },
    {
      "magFilter": 9729,
      "minFilter": 9987,
      "wrapS": 10497,
      "wrapT": 10497
    },
    {
      "magFilter": 9729,
      "minFilter": 9987,
      "wrapS": 10497,
      "wrapT": 10497
    },
    {
      "magFilter": 9729,
      "minFilter": 9987,
      "wrapS": 10497,
      "wrapT": 10497
    },
    {
      "magFilter": 9729,
      "minFilter": 9987,
      "wrapS": 10497,
      "wrapT": 10497
    }
  ],
  "images": [
    {
      "uri": "base.png",
      "mimeType": "image/png",
      "name": "base.png"
    },
    {
      "uri": "metallicRoughness.png",
      "mimeType": "image/png",
      "name": "metallicRoughness.png"
    },
    {
      "uri": "normal.png",
      "mimeType": "image/png",
      "name": "normal.png"
    },
    {
      "uri": "base_1.png",
      "mimeType": "image/png",
      "name": "base.png"
    },
    {
      "uri": "metallicRoughness_1.png",
      "mimeType": "image/png",
      "name": "metallicRoughness.png"
    },
    {
      "uri": "normal_1.png",
      "mimeType": "image/png",
      "name": "normal.png"
    }
  ],
  "extensionsUsed": [
    "KHR_node_visibility"
  ]
}