{"asset":{"version":"2.0","generator":"Unity 6000.0.26f1 glTFast 6.12.1"},"nodes":[{"name":"floor","mesh":0,"translation":[2.71513939,-1.19856429,-0.223899186],"scale":[10,10,10]},{"name":"Cube_1","mesh":1,"translation":[5.21513939,-0.6985643,-0.223899186]},{"name":"Sphere","mesh":2,"translation":[2.71513939,-0.6985643,-0.223899186]},{"name":"test_grp","children":[0,1,2],"translation":[-2.71513939,1.19856429,0.223899186]}],"buffers":[{"uri":"test_lights.bin","byteLength":286816}],"bufferViews":[{"buffer":0,"byteLength":72,"target":34963},{"buffer":0,"byteLength":4608,"byteOffset":72,"target":34963},{"buffer":0,"byteLength":49152,"byteOffset":4680,"target":34963},{"buffer":0,"byteLength":1344,"byteOffset":53832,"byteStride":56,"target":34962},{"buffer":0,"byteLength":28840,"byteOffset":55176,"byteStride":56,"target":34962},{"buffer":0,"byteLength":202800,"byteOffset":84016,"byteStride":48,"target":34962}],"accessors":[{"bufferView":5,"componentType":5126,"count":4225,"type":"VEC3","max":[0.5,0,0.5],"min":[-0.5,0,-0.5]},{"bufferView":5,"componentType":5126,"count":4225,"type":"VEC3","byteOffset":12},{"bufferView":5,"componentType":5126,"count":4225,"type":"VEC4","byteOffset":24},{"bufferView":5,"componentType":5126,"count":4225,"type":"VEC2","byteOffset":40},{"bufferView":2,"componentType":5123,"count":24576,"type":"SCALAR"},{"bufferView":3,"componentType":5126,"count":24,"type":"VEC3","max":[0.5,0.5,0.5],"min":[-0.5,-0.5,-0.5]},{"bufferView":3,"componentType":5126,"count":24,"type":"VEC3","byteOffset":12},{"bufferView":3,"componentType":5126,"count":24,"type":"VEC4","byteOffset":24},{"bufferView":3,"componentType":5126,"count":24,"type":"VEC2","byteOffset":40},{"bufferView":3,"componentType":5126,"count":24,"type":"VEC2","byteOffset":48},{"bufferView":0,"componentType":5123,"count":36,"type":"SCALAR"},{"bufferView":4,"componentType":5126,"count":515,"type":"VEC3","max":[0.5,0.5,0.5],"min":[-0.5,-0.5,-0.5]},{"bufferView":4,"componentType":5126,"count":515,"type":"VEC3","byteOffset":12},{"bufferView":4,"componentType":5126,"count":515,"type":"VEC4","byteOffset":24},{"bufferView":4,"componentType":5126,"count":515,"type":"VEC2","byteOffset":40},{"bufferView":4,"componentType":5126,"count":515,"type":"VEC2","byteOffset":48},{"bufferView":1,"componentType":5123,"count":2304,"type":"SCALAR"}],"materials":[{"name":"Lit","pbrMetallicRoughness":{"baseColorFactor":[0.214041144,0.214041144,0.214041144,1],"metallicFactor":0,"roughnessFactor":0.5}}],"meshes":[{"name":"plane_tessellated","primitives":[{"attributes":{"POSITION":0,"NORMAL":1,"TANGENT":2,"TEXCOORD_0":3},"indices":4,"material":0}]},{"name":"Cube","primitives":[{"attributes":{"POSITION":5,"NORMAL":6,"TANGENT":7,"TEXCOORD_0":8,"TEXCOORD_1":9},"indices":10,"material":0}]},{"name":"Sphere","primitives":[{"attributes":{"POSITION":11,"NORMAL":12,"TANGENT":13,"TEXCOORD_0":14,"TEXCOORD_1":15},"indices":16,"material":0}]}],"scene":0,"scenes":[{"name":"test_grp","nodes":[3]}]}