{
  "asset": {
    "version": "2.0",
    "generator": "Unity 6000.0.26f1 glTFast 6.12.1"
  },
  "nodes": [
    {
      "name": "floor",
      "mesh": 0,
      "translation": [
        2.59151864,
        -2.82019472,
        7.044629
      ],
      "scale": [
        10,
        10,
        10
      ]
    },
    {
      "name": "wall_1",
      "mesh": 0,
      "translation": [
        5.0915184,
        -0.320194721,
        12.0446291
      ],
      "rotation": [
        -0.7071068,
        0,
        0,
        0.7071068
      ],
      "scale": [
        5,
        5,
        5
      ]
    },
    {
      "name": "wall_2",
      "mesh": 0,
      "translation": [
        7.5915184,
        -0.320194721,
        9.544629
      ],
      "rotation": [
        -0.5,
        0.5,
        0.5,
        0.5
      ],
      "scale": [
        5,
        5,
        5
      ]
    },
    {
      "name": "wall_3",
      "mesh": 0,
      "translation": [
        7.5915184,
        -0.320194721,
        4.544629
      ],
      "rotation": [
        -0.5,
        0.5,
        0.5,
        0.5
      ],
      "scale": [
        5,
        5,
        5
      ]
    },
    {
      "name": "wall_4",
      "mesh": 0,
      "translation": [
        0.09151864,
        -0.320194721,
        12.0446291
      ],
      "rotation": [
        -0.7071068,
        0,
        0,
        0.7071068
      ],
      "scale": [
        5,
        5,
        5
      ]
    },
    {
      "name": "Cube_1",
      "mesh": 1,
      "translation": [
        5.14151859,
        -2.25256014,
        7.091742
      ]
    },
    {
      "name": "Cube_2",
      "mesh": 1,
      "translation": [
        0.423518658,
        -2.25256014,
        7.091742
      ]
    },
    {
      "name": "Cylinder",
      "mesh": 2,
      "translation": [
        3.26851869,
        -1.82019472,
        10.0956287
      ]
    },
    {
      "name": "Sphere",
      "mesh": 3,
      "translation": [
        4.41051865,
        -2.32019472,
        4.857629
      ]
    },
    {
      "name": "test_lights",
      "children": [
        0,
        1,
        2,
        3,
        4,
        5,
        6,
        7,
        8
      ],
      "translation": [
        -2.59151864,
        2.82019472,
        -7.044629
      ]
    }
  ],
  "buffers": [
    {
      "uri": "test_lights.bin",
      "byteLength": 292224
    }
  ],
  "bufferViews": [
    {
      "buffer": 0,
      "byteLength": 72,
      "target": 34963
    },
    {
      "buffer": 0,
      "byteLength": 480,
      "byteOffset": 72,
      "target": 34963
    },
    {
      "buffer": 0,
      "byteLength": 4608,
      "byteOffset": 552,
      "target": 34963
    },
    {
      "buffer": 0,
      "byteLength": 49152,
      "byteOffset": 5160,
      "target": 34963
    },
    {
      "buffer": 0,
      "byteLength": 1344,
      "byteOffset": 54312,
      "byteStride": 56,
      "target": 34962
    },
    {
      "buffer": 0,
      "byteLength": 4928,
      "byteOffset": 55656,
      "byteStride": 56,
      "target": 34962
    },
    {
      "buffer": 0,
      "byteLength": 28840,
      "byteOffset": 60584,
      "byteStride": 56,
      "target": 34962
    },
    {
      "buffer": 0,
      "byteLength": 202800,
      "byteOffset": 89424,
      "byteStride": 48,
      "target": 34962
    }
  ],
  "accessors": [
    {
      "bufferView": 7,
      "componentType": 5126,
      "count": 4225,
      "type": "VEC3",
      "max": [
        0.5,
        0,
        0.5
      ],
      "min": [
        -0.5,
        0,
        -0.5
      ]
    },
    {
      "bufferView": 7,
      "componentType": 5126,
      "count": 4225,
      "type": "VEC3",
      "byteOffset": 12
    },
    {
      "bufferView": 7,
      "componentType": 5126,
      "count": 4225,
      "type": "VEC4",
      "byteOffset": 24
    },
    {
      "bufferView": 7,
      "componentType": 5126,
      "count": 4225,
      "type": "VEC2",
      "byteOffset": 40
    },
    {
      "bufferView": 3,
      "componentType": 5123,
      "count": 24576,
      "type": "SCALAR"
    },
    {
      "bufferView": 4,
      "componentType": 5126,
      "count": 24,
      "type": "VEC3",
      "max": [
        0.5,
        0.5,
        0.5
      ],
      "min": [
        -0.5,
        -0.5,
        -0.5
      ]
    },
    {
      "bufferView": 4,
      "componentType": 5126,
      "count": 24,
      "type": "VEC3",
      "byteOffset": 12
    },
    {
      "bufferView": 4,
      "componentType": 5126,
      "count": 24,
      "type": "VEC4",
      "byteOffset": 24
    },
    {
      "bufferView": 4,
      "componentType": 5126,
      "count": 24,
      "type": "VEC2",
      "byteOffset": 40
    },
    {
      "bufferView": 4,
      "componentType": 5126,
      "count": 24,
      "type": "VEC2",
      "byteOffset": 48
    },
    {
      "bufferView": 0,
      "componentType": 5123,
      "count": 36,
      "type": "SCALAR"
    },
    {
      "bufferView": 5,
      "componentType": 5126,
      "count": 88,
      "type": "VEC3",
      "max": [
        0.5,
        1,
        0.5
      ],
      "min": [
        -0.5000001,
        -1,
        -0.500000238
      ]
    },
    {
      "bufferView": 5,
      "componentType": 5126,
      "count": 88,
      "type": "VEC3",
      "byteOffset": 12
    },
    {
      "bufferView": 5,
      "componentType": 5126,
      "count": 88,
      "type": "VEC4",
      "byteOffset": 24
    },
    {
      "bufferView": 5,
      "componentType": 5126,
      "count": 88,
      "type": "VEC2",
      "byteOffset": 40
    },
    {
      "bufferView": 5,
      "componentType": 5126,
      "count": 88,
      "type": "VEC2",
      "byteOffset": 48
    },
    {
      "bufferView": 1,
      "componentType": 5123,
      "count": 240,
      "type": "SCALAR"
    },
    {
      "bufferView": 6,
      "componentType": 5126,
      "count": 515,
      "type": "VEC3",
      "max": [
        0.5,
        0.5,
        0.5
      ],
      "min": [
        -0.5,
        -0.5,
        -0.5
      ]
    },
    {
      "bufferView": 6,
      "componentType": 5126,
      "count": 515,
      "type": "VEC3",
      "byteOffset": 12
    },
    {
      "bufferView": 6,
      "componentType": 5126,
      "count": 515,
      "type": "VEC4",
      "byteOffset": 24
    },
    {
      "bufferView": 6,
      "componentType": 5126,
      "count": 515,
      "type": "VEC2",
      "byteOffset": 40
    },
    {
      "bufferView": 6,
      "componentType": 5126,
      "count": 515,
      "type": "VEC2",
      "byteOffset": 48
    },
    {
      "bufferView": 2,
      "componentType": 5123,
      "count": 2304,
      "type": "SCALAR"
    }
  ],
  "materials": [
    {
      "name": "Lit",
      "pbrMetallicRoughness": {
        "baseColorFactor": [
          0.214041144,
          0.214041144,
          0.214041144,
          1
        ],
        "metallicFactor": 0,
        "roughnessFactor": 0.5
      }
    }
  ],
  "meshes": [
    {
      "name": "plane_tessellated",
      "primitives": [
        {
          "attributes": {
            "POSITION": 0,
            "NORMAL": 1,
            "TANGENT": 2,
            "TEXCOORD_0": 3
          },
          "indices": 4,
          "material": 0
        }
      ]
    },
    {
      "name": "Cube",
      "primitives": [
        {
          "attributes": {
            "POSITION": 5,
            "NORMAL": 6,
            "TANGENT": 7,
            "TEXCOORD_0": 8,
            "TEXCOORD_1": 9
          },
          "indices": 10,
          "material": 0
        }
      ]
    },
    {
      "name": "Cylinder",
      "primitives": [
        {
          "attributes": {
            "POSITION": 11,
            "NORMAL": 12,
            "TANGENT": 13,
            "TEXCOORD_0": 14,
            "TEXCOORD_1": 15
          },
          "indices": 16,
          "material": 0
        }
      ]
    },
    {
      "name": "Sphere",
      "primitives": [
        {
          "attributes": {
            "POSITION": 17,
            "NORMAL": 18,
            "TANGENT": 19,
            "TEXCOORD_0": 20,
            "TEXCOORD_1": 21
          },
          "indices": 22,
          "material": 0
        }
      ]
    }
  ],
  "scene": 0,
  "scenes": [
    {
      "name": "test_lights",
      "nodes": [
        9
      ]
    }
  ]
}