<svg width="1126pt" height="682pt" viewBox="0.00 0.00 1126.00 682.00" xmlns="http://www.w3.org/2000/svg" xmlns:xlink="http://www.w3.org/1999/xlink">
<g id="graph0" class="graph" transform="scale(1 1) rotate(0) translate(4 678.4)">
<title>RenderGraph</title>
<polygon fill="white" stroke="none" points="-4,4 -4,-678.4 1122,-678.4 1122,4 -4,4"/>
<g id="clust1" class="cluster">
<title>cluster_graphics</title>
<polygon fill="none" stroke="black" stroke-dasharray="1,5" points="8,-8 8,-666.4 682,-666.4 682,-8 8,-8"/>
<text xml:space="preserve" text-anchor="middle" x="345" y="-649.8" font-family="Times,serif" font-size="14.00">Graphic Queue</text>
</g>
<g id="clust2" class="cluster">
<title>cluster_graphics_batch_0</title>
<polygon fill="none" stroke="black" stroke-dasharray="5,2" points="45,-517.6 45,-633.6 197,-633.6 197,-517.6 45,-517.6"/>
<text xml:space="preserve" text-anchor="middle" x="121" y="-617" font-family="Times,serif" font-size="14.00">Graphic Batch #0</text>
<text xml:space="preserve" text-anchor="middle" x="121" y="-600.2" font-family="Times,serif" font-size="14.00"> wait=0 signal=1</text>
</g>
<g id="clust3" class="cluster">
<title>cluster_graphics_batch_1</title>
<polygon fill="none" stroke="black" stroke-dasharray="5,2" points="16,-16 16,-509.6 674,-509.6 674,-16 16,-16"/>
<text xml:space="preserve" text-anchor="middle" x="345" y="-493" font-family="Times,serif" font-size="14.00">Graphic Batch #1</text>
<text xml:space="preserve" text-anchor="middle" x="345" y="-476.2" font-family="Times,serif" font-size="14.00"> wait=2 signal=2</text>
</g>
<g id="clust4" class="cluster">
<title>cluster_computes</title>
<polygon fill="none" stroke="black" stroke-dasharray="1,5" points="690,-9.2 690,-666.4 1110,-666.4 1110,-9.2 690,-9.2"/>
<text xml:space="preserve" text-anchor="middle" x="900" y="-649.8" font-family="Times,serif" font-size="14.00">Compute Queue</text>
</g>
<g id="clust5" class="cluster">
<title>cluster_compute_batch_0</title>
<polygon fill="none" stroke="black" stroke-dasharray="5,2" points="698,-517.6 698,-633.6 1102,-633.6 1102,-517.6 698,-517.6"/>
<text xml:space="preserve" text-anchor="middle" x="900" y="-617" font-family="Times,serif" font-size="14.00">Compute Batch #0</text>
<text xml:space="preserve" text-anchor="middle" x="900" y="-600.2" font-family="Times,serif" font-size="14.00"> wait=0 signal=2</text>
</g>
<g id="clust6" class="cluster">
<title>cluster_compute_batch_invis</title>
</g>
<!-- node_1 -->
<g id="node1" class="node">
<title>node_1</title>
<polygon fill="palegreen" stroke="black" points="189.27,-584 52.73,-584 52.73,-525.6 189.27,-525.6 189.27,-584"/>
<text xml:space="preserve" text-anchor="middle" x="121" y="-567.4" font-family="Times,serif" font-size="14.00">dir_shadow_pass</text>
<text xml:space="preserve" text-anchor="middle" x="121" y="-550.6" font-family="Times,serif" font-size="14.00">R: dir_shadow_map </text>
<text xml:space="preserve" text-anchor="middle" x="121" y="-533.8" font-family="Times,serif" font-size="14.00">W: dir_shadow_map </text>
</g>
<!-- node_3 -->
<g id="node3" class="node">
<title>node_3</title>
<polygon fill="palegreen" stroke="black" points="646.46,-365.6 23.54,-365.6 23.54,-307.2 646.46,-307.2 646.46,-365.6"/>
<text xml:space="preserve" text-anchor="middle" x="335" y="-349" font-family="Times,serif" font-size="14.00">lighting_pass</text>
<text xml:space="preserve" text-anchor="middle" x="335" y="-332.2" font-family="Times,serif" font-size="14.00">R: gbuff_albedo gbuff_normal gbuff_ao_metallic_roughness gbuff_emissive gbuff_depth dir_shadow_map </text>
<text xml:space="preserve" text-anchor="middle" x="335" y="-315.4" font-family="Times,serif" font-size="14.00">W: lighting_output </text>
</g>
<!-- node_1&#45;&gt;node_3 -->
<g id="edge7" class="edge">
<title>node_1-&gt;node_3</title>
<path fill="none" stroke="black" d="M114.1,-525.21C107.85,-491.85 103.36,-436.8 131,-401.6 140.5,-389.5 152.28,-379.63 165.33,-371.6"/>
<polygon fill="black" stroke="black" points="166.78,-374.8 173.74,-366.81 163.32,-368.72 166.78,-374.8"/>
</g>
<!-- node_2 -->
<g id="node2" class="node">
<title>node_2</title>
<polygon fill="palegreen" stroke="black" points="666.44,-460 139.56,-460 139.56,-401.6 666.44,-401.6 666.44,-460"/>
<text xml:space="preserve" text-anchor="middle" x="403" y="-443.4" font-family="Times,serif" font-size="14.00">gbuffer_pass</text>
<text xml:space="preserve" text-anchor="middle" x="403" y="-426.6" font-family="Times,serif" font-size="14.00">R: gbuff_depth indirect_draw_commands_buffer indirect_draw_count_buffer </text>
<text xml:space="preserve" text-anchor="middle" x="403" y="-409.8" font-family="Times,serif" font-size="14.00">W: gbuff_depth gbuff_albedo gbuff_normal gbuff_ao_metallic_roughness gbuff_emissive </text>
</g>
<!-- node_2&#45;&gt;node_3 -->
<g id="edge8" class="edge">
<title>node_2-&gt;node_3</title>
<path fill="none" stroke="black" d="M382.04,-401.32C375.97,-393.07 369.24,-383.92 362.81,-375.19"/>
<polygon fill="black" stroke="black" points="365.65,-373.14 356.9,-367.16 360.01,-377.29 365.65,-373.14"/>
</g>
<!-- node_4 -->
<g id="node4" class="node">
<title>node_4</title>
<polygon fill="palegreen" stroke="black" points="550.18,-271.2 351.82,-271.2 351.82,-212.8 550.18,-212.8 550.18,-271.2"/>
<text xml:space="preserve" text-anchor="middle" x="451" y="-254.6" font-family="Times,serif" font-size="14.00">skybox_pass</text>
<text xml:space="preserve" text-anchor="middle" x="451" y="-237.8" font-family="Times,serif" font-size="14.00">R: gbuff_depth lighting_output </text>
<text xml:space="preserve" text-anchor="middle" x="451" y="-221" font-family="Times,serif" font-size="14.00">W: gbuff_depth lighting_output </text>
</g>
<!-- node_2&#45;&gt;node_4 -->
<g id="edge9" class="edge">
<title>node_2-&gt;node_4</title>
<path fill="none" stroke="black" d="M579.23,-401.14C614.25,-391.84 643.75,-380.08 655,-365.6 670.93,-345.11 670.35,-328.13 655,-307.2 633.06,-277.29 597.17,-260.95 561.56,-252.14"/>
<polygon fill="black" stroke="black" points="562.54,-248.77 552.01,-249.97 560.99,-255.6 562.54,-248.77"/>
</g>
<!-- node_3&#45;&gt;node_4 -->
<g id="edge10" class="edge">
<title>node_3-&gt;node_4</title>
<path fill="none" stroke="black" d="M370.75,-306.92C382,-297.96 394.56,-287.96 406.34,-278.57"/>
<polygon fill="black" stroke="black" points="408.34,-281.45 413.98,-272.49 403.98,-275.98 408.34,-281.45"/>
</g>
<!-- node_5 -->
<g id="node5" class="node">
<title>node_5</title>
<polygon fill="palegreen" stroke="black" points="516.54,-176.8 385.46,-176.8 385.46,-118.4 516.54,-118.4 516.54,-176.8"/>
<text xml:space="preserve" text-anchor="middle" x="451" y="-160.2" font-family="Times,serif" font-size="14.00">tonemap_pass</text>
<text xml:space="preserve" text-anchor="middle" x="451" y="-143.4" font-family="Times,serif" font-size="14.00">R: lighting_output </text>
<text xml:space="preserve" text-anchor="middle" x="451" y="-126.6" font-family="Times,serif" font-size="14.00">W: tonemap_output </text>
</g>
<!-- node_4&#45;&gt;node_5 -->
<g id="edge11" class="edge">
<title>node_4-&gt;node_5</title>
<path fill="none" stroke="black" d="M451,-212.52C451,-204.97 451,-196.67 451,-188.63"/>
<polygon fill="black" stroke="black" points="454.5,-188.66 451,-178.66 447.5,-188.66 454.5,-188.66"/>
</g>
<!-- node_6 -->
<g id="node6" class="node">
<title>node_6</title>
<polygon fill="palegreen" stroke="black" points="514.61,-82.4 387.39,-82.4 387.39,-24 514.61,-24 514.61,-82.4"/>
<text xml:space="preserve" text-anchor="middle" x="451" y="-65.8" font-family="Times,serif" font-size="14.00">present_pass</text>
<text xml:space="preserve" text-anchor="middle" x="451" y="-49" font-family="Times,serif" font-size="14.00">R: tonemap_output </text>
<text xml:space="preserve" text-anchor="middle" x="451" y="-32.2" font-family="Times,serif" font-size="14.00">W: swap_image </text>
</g>
<!-- node_5&#45;&gt;node_6 -->
<g id="edge12" class="edge">
<title>node_5-&gt;node_6</title>
<path fill="none" stroke="black" d="M451,-118.12C451,-110.57 451,-102.27 451,-94.23"/>
<polygon fill="black" stroke="black" points="454.5,-94.26 451,-84.26 447.5,-94.26 454.5,-94.26"/>
</g>
<!-- node_0 -->
<g id="node7" class="node">
<title>node_0</title>
<polygon fill="lightblue" stroke="black" points="1093.63,-584 706.37,-584 706.37,-525.6 1093.63,-525.6 1093.63,-584"/>
<text xml:space="preserve" text-anchor="middle" x="900" y="-567.4" font-family="Times,serif" font-size="14.00">cull_lod_pass</text>
<text xml:space="preserve" text-anchor="middle" x="900" y="-550.6" font-family="Times,serif" font-size="14.00">R: indirect_draw_count_buffer </text>
<text xml:space="preserve" text-anchor="middle" x="900" y="-533.8" font-family="Times,serif" font-size="14.00">W: indirect_draw_commands_buffer indirect_draw_count_buffer </text>
</g>
<!-- node_0&#45;&gt;node_2 -->
<g id="edge6" class="edge">
<title>node_0-&gt;node_2</title>
<path fill="none" stroke="black" d="M783.16,-525.12C707.25,-506.48 608.29,-482.19 530.36,-463.06"/>
<polygon fill="black" stroke="black" points="531.53,-459.75 520.98,-460.76 529.86,-466.54 531.53,-459.75"/>
</g>
<!-- pad_compute_0 -->
<!-- node_0&#45;&gt;pad_compute_0 -->
<!-- pad_compute_1 -->
<!-- pad_compute_0&#45;&gt;pad_compute_1 -->
<!-- pad_compute_2 -->
<!-- pad_compute_1&#45;&gt;pad_compute_2 -->
<!-- pad_compute_3 -->
<!-- pad_compute_2&#45;&gt;pad_compute_3 -->
<!-- pad_compute_4 -->
<!-- pad_compute_3&#45;&gt;pad_compute_4 -->
</g>
</svg>