<svg width="721pt" height="501pt" viewBox="0.00 0.00 721.00 501.00" xmlns="http://www.w3.org/2000/svg" xmlns:xlink="http://www.w3.org/1999/xlink">
<g id="graph0" class="graph" transform="scale(1 1) rotate(0) translate(4 496.8)">
<title>RenderGraph</title>
<polygon fill="white" stroke="none" points="-4,4 -4,-496.8 717,-496.8 717,4 -4,4"/>
<g id="clust1" class="cluster">
<title>cluster_graphics</title>
<polygon fill="none" stroke="black" stroke-dasharray="1,5" points="8,-8 8,-484.8 705,-484.8 705,-8 8,-8"/>
<text xml:space="preserve" text-anchor="middle" x="356.5" y="-468.2" font-family="Times,serif" font-size="14.00">Graphic Queue</text>
</g>
<!-- node_0 -->
<g id="node1" class="node">
<title>node_0</title>
<polygon fill="lightblue" stroke="black" points="472.63,-452 85.37,-452 85.37,-393.6 472.63,-393.6 472.63,-452"/>
<text xml:space="preserve" text-anchor="middle" x="279" y="-435.4" font-family="Times,serif" font-size="14.00">cull_lod_pass</text>
<text xml:space="preserve" text-anchor="middle" x="279" y="-418.6" font-family="Times,serif" font-size="14.00">R: indirect_draw_count_buffer </text>
<text xml:space="preserve" text-anchor="middle" x="279" y="-401.8" font-family="Times,serif" font-size="14.00">W: indirect_draw_commands_buffer indirect_draw_count_buffer </text>
</g>
<!-- node_2 -->
<g id="node3" class="node">
<title>node_2</title>
<polygon fill="palegreen" stroke="black" points="542.44,-357.6 15.56,-357.6 15.56,-299.2 542.44,-299.2 542.44,-357.6"/>
<text xml:space="preserve" text-anchor="middle" x="279" y="-341" font-family="Times,serif" font-size="14.00">gbuffer_pass</text>
<text xml:space="preserve" text-anchor="middle" x="279" y="-324.2" font-family="Times,serif" font-size="14.00">R: gbuff_depth indirect_draw_commands_buffer indirect_draw_count_buffer </text>
<text xml:space="preserve" text-anchor="middle" x="279" y="-307.4" font-family="Times,serif" font-size="14.00">W: gbuff_depth gbuff_albedo gbuff_normal gbuff_ao_metallic_roughness gbuff_emissive </text>
</g>
<!-- node_0&#45;&gt;node_2 -->
<g id="edge1" class="edge">
<title>node_0-&gt;node_2</title>
<path fill="none" stroke="black" d="M279,-393.32C279,-385.77 279,-377.47 279,-369.43"/>
<polygon fill="black" stroke="black" points="282.5,-369.46 279,-359.46 275.5,-369.46 282.5,-369.46"/>
</g>
<!-- node_1 -->
<g id="node2" class="node">
<title>node_1</title>
<polygon fill="palegreen" stroke="black" points="697.27,-357.6 560.73,-357.6 560.73,-299.2 697.27,-299.2 697.27,-357.6"/>
<text xml:space="preserve" text-anchor="middle" x="629" y="-341" font-family="Times,serif" font-size="14.00">dir_shadow_pass</text>
<text xml:space="preserve" text-anchor="middle" x="629" y="-324.2" font-family="Times,serif" font-size="14.00">R: dir_shadow_map </text>
<text xml:space="preserve" text-anchor="middle" x="629" y="-307.4" font-family="Times,serif" font-size="14.00">W: dir_shadow_map </text>
</g>
<!-- node_3 -->
<g id="node4" class="node">
<title>node_3</title>
<polygon fill="palegreen" stroke="black" points="697.46,-263.2 74.54,-263.2 74.54,-204.8 697.46,-204.8 697.46,-263.2"/>
<text xml:space="preserve" text-anchor="middle" x="386" y="-246.6" font-family="Times,serif" font-size="14.00">lighting_pass</text>
<text xml:space="preserve" text-anchor="middle" x="386" y="-229.8" font-family="Times,serif" font-size="14.00">R: gbuff_albedo gbuff_normal gbuff_ao_metallic_roughness gbuff_emissive gbuff_depth dir_shadow_map </text>
<text xml:space="preserve" text-anchor="middle" x="386" y="-213" font-family="Times,serif" font-size="14.00">W: lighting_output </text>
</g>
<!-- node_1&#45;&gt;node_3 -->
<g id="edge2" class="edge">
<title>node_1-&gt;node_3</title>
<path fill="none" stroke="black" d="M560.34,-301.29C532.84,-290.84 500.86,-278.67 471.85,-267.64"/>
<polygon fill="black" stroke="black" points="473.31,-264.46 462.72,-264.17 470.83,-271 473.31,-264.46"/>
</g>
<!-- node_2&#45;&gt;node_3 -->
<g id="edge3" class="edge">
<title>node_2-&gt;node_3</title>
<path fill="none" stroke="black" d="M311.98,-298.92C322.25,-290.05 333.71,-280.16 344.49,-270.85"/>
<polygon fill="black" stroke="black" points="346.52,-273.72 351.8,-264.53 341.95,-268.42 346.52,-273.72"/>
</g>
<!-- node_4 -->
<g id="node5" class="node">
<title>node_4</title>
<polygon fill="palegreen" stroke="black" points="349.18,-168.8 150.82,-168.8 150.82,-110.4 349.18,-110.4 349.18,-168.8"/>
<text xml:space="preserve" text-anchor="middle" x="250" y="-152.2" font-family="Times,serif" font-size="14.00">skybox_pass</text>
<text xml:space="preserve" text-anchor="middle" x="250" y="-135.4" font-family="Times,serif" font-size="14.00">R: gbuff_depth lighting_output </text>
<text xml:space="preserve" text-anchor="middle" x="250" y="-118.6" font-family="Times,serif" font-size="14.00">W: gbuff_depth lighting_output </text>
</g>
<!-- node_2&#45;&gt;node_4 -->
<g id="edge4" class="edge">
<title>node_2-&gt;node_4</title>
<path fill="none" stroke="black" d="M138.7,-298.78C105.28,-289.03 76.28,-277.03 66,-263.2 50.52,-242.37 50.97,-225.96 66,-204.8 83.46,-180.22 111.06,-164.97 139.62,-155.54"/>
<polygon fill="black" stroke="black" points="140.6,-158.9 149.15,-152.64 138.57,-152.2 140.6,-158.9"/>
</g>
<!-- node_3&#45;&gt;node_4 -->
<g id="edge5" class="edge">
<title>node_3-&gt;node_4</title>
<path fill="none" stroke="black" d="M344.09,-204.52C330.51,-195.3 315.31,-184.97 301.14,-175.35"/>
<polygon fill="black" stroke="black" points="303.5,-172.72 293.26,-169.99 299.57,-178.51 303.5,-172.72"/>
</g>
<!-- node_5 -->
<g id="node6" class="node">
<title>node_5</title>
<polygon fill="palegreen" stroke="black" points="311.28,-74.4 188.72,-74.4 188.72,-16 311.28,-16 311.28,-74.4"/>
<text xml:space="preserve" text-anchor="middle" x="250" y="-57.8" font-family="Times,serif" font-size="14.00">present_pass</text>
<text xml:space="preserve" text-anchor="middle" x="250" y="-41" font-family="Times,serif" font-size="14.00">R: lighting_output </text>
<text xml:space="preserve" text-anchor="middle" x="250" y="-24.2" font-family="Times,serif" font-size="14.00">W: swap_image </text>
</g>
<!-- node_4&#45;&gt;node_5 -->
<g id="edge6" class="edge">
<title>node_4-&gt;node_5</title>
<path fill="none" stroke="black" d="M250,-110.12C250,-102.57 250,-94.27 250,-86.23"/>
<polygon fill="black" stroke="black" points="253.5,-86.26 250,-76.26 246.5,-86.26 253.5,-86.26"/>
</g>
</g>
</svg>